<svg xmlns="http://www.w3.org/2000/svg" width="393" height="852" viewBox="0 0 393 852" fill="none"><title>Word entry: spelled by sound, tile selected (phone)</title><defs><radialGradient id="glowA" cx="58.949999999999996" cy="0" r="383.40000000000003" gradientUnits="userSpaceOnUse"><stop stop-color="#fff3e2"/><stop offset="1" stop-color="#fff3e2" stop-opacity="0"/></radialGradient><radialGradient id="glowB" cx="393" cy="852" r="340.8" gradientUnits="userSpaceOnUse"><stop stop-color="#ffeaf0"/><stop offset="1" stop-color="#ffeaf0" stop-opacity="0"/></radialGradient><filter id="shadow1" x="-22" y="-26" width="140" height="140" filterUnits="userSpaceOnUse" color-interpolation-filters="sRGB"><feFlood flood-opacity="0" result="BackgroundImageFix"/><feColorMatrix in="SourceAlpha" type="matrix" values="0 0 0 0 0 0 0 0 0 0 0 0 0 0 0 0 0 0 127 0" result="hardAlpha"/><feOffset dx="0" dy="4"/><feColorMatrix type="matrix" values="0 0 0 0 0.937 0 0 0 0 0.851 0 0 0 0 0.741 0 0 0 1 0"/><feBlend mode="normal" in2="BackgroundImageFix" result="effect1_dropShadow"/><feColorMatrix in="SourceAlpha" type="matrix" values="0 0 0 0 0 0 0 0 0 0 0 0 0 0 0 0 0 0 127 0" result="hardAlpha"/><feOffset dx="0" dy="6"/><feGaussianBlur stdDeviation="7"/><feColorMatrix type="matrix" values="0 0 0 0 0.627 0 0 0 0 0.431 0 0 0 0 0.235 0 0 0 0.12 0"/><feBlend mode="normal" in2="effect1_dropShadow" result="effect2_dropShadow"/><feBlend mode="normal" in="SourceGraphic" in2="effect2_dropShadow" result="shape"/></filter><filter id="shadow2" x="8" y="271.4" width="92" height="92" filterUnits="userSpaceOnUse" color-interpolation-filters="sRGB"><feFlood flood-opacity="0" result="BackgroundImageFix"/><feColorMatrix in="SourceAlpha" type="matrix" values="0 0 0 0 0 0 0 0 0 0 0 0 0 0 0 0 0 0 127 0" result="hardAlpha"/><feMorphology radius="4" operator="dilate" in="SourceAlpha" result="spread0"/><feOffset dx="0" dy="0"/><feColorMatrix type="matrix" values="0 0 0 0 1.000 0 0 0 0 0.624 0 0 0 0 0.353 0 0 0 1 0"/><feBlend mode="normal" in2="BackgroundImageFix" result="effect1_dropShadow"/><feColorMatrix in="SourceAlpha" type="matrix" values="0 0 0 0 0 0 0 0 0 0 0 0 0 0 0 0 0 0 127 0" result="hardAlpha"/><feOffset dx="0" dy="4"/><feColorMatrix type="matrix" values="0 0 0 0 0.937 0 0 0 0 0.851 0 0 0 0 0.741 0 0 0 1 0"/><feBlend mode="normal" in2="effect1_dropShadow" result="effect2_dropShadow"/><feBlend mode="normal" in="SourceGraphic" in2="effect2_dropShadow" result="shape"/></filter><filter id="shadow3" x="94" y="271.4" width="92" height="92" filterUnits="userSpaceOnUse" color-interpolation-filters="sRGB"><feFlood flood-opacity="0" result="BackgroundImageFix"/><feColorMatrix in="SourceAlpha" type="matrix" values="0 0 0 0 0 0 0 0 0 0 0 0 0 0 0 0 0 0 127 0" result="hardAlpha"/><feOffset dx="0" dy="4"/><feColorMatrix type="matrix" values="0 0 0 0 0.937 0 0 0 0 0.851 0 0 0 0 0.741 0 0 0 1 0"/><feBlend mode="normal" in2="BackgroundImageFix" result="effect1_dropShadow"/><feBlend mode="normal" in="SourceGraphic" in2="effect1_dropShadow" result="shape"/></filter><filter id="shadow4" x="8" y="369.4" width="147.3" height="68" filterUnits="userSpaceOnUse" color-interpolation-filters="sRGB"><feFlood flood-opacity="0" result="BackgroundImageFix"/><feColorMatrix in="SourceAlpha" type="matrix" values="0 0 0 0 0 0 0 0 0 0 0 0 0 0 0 0 0 0 127 0" result="hardAlpha"/><feOffset dx="0" dy="4"/><feColorMatrix type="matrix" values="0 0 0 0 0.906 0 0 0 0 0.478 0 0 0 0 0.180 0 0 0 1 0"/><feBlend mode="normal" in2="BackgroundImageFix" result="effect1_dropShadow"/><feBlend mode="normal" in="SourceGraphic" in2="effect1_dropShadow" result="shape"/></filter><filter id="shadow5" x="151.3" y="369.4" width="151.3" height="68" filterUnits="userSpaceOnUse" color-interpolation-filters="sRGB"><feFlood flood-opacity="0" result="BackgroundImageFix"/><feColorMatrix in="SourceAlpha" type="matrix" values="0 0 0 0 0 0 0 0 0 0 0 0 0 0 0 0 0 0 127 0" result="hardAlpha"/><feOffset dx="0" dy="4"/><feColorMatrix type="matrix" values="0 0 0 0 0.937 0 0 0 0 0.851 0 0 0 0 0.741 0 0 0 1 0"/><feBlend mode="normal" in2="BackgroundImageFix" result="effect1_dropShadow"/><feBlend mode="normal" in="SourceGraphic" in2="effect1_dropShadow" result="shape"/></filter><filter id="shadow6" x="8" y="433.4" width="141.6" height="68" filterUnits="userSpaceOnUse" color-interpolation-filters="sRGB"><feFlood flood-opacity="0" result="BackgroundImageFix"/><feColorMatrix in="SourceAlpha" type="matrix" values="0 0 0 0 0 0 0 0 0 0 0 0 0 0 0 0 0 0 127 0" result="hardAlpha"/><feOffset dx="0" dy="4"/><feColorMatrix type="matrix" values="0 0 0 0 0.937 0 0 0 0 0.851 0 0 0 0 0.741 0 0 0 1 0"/><feBlend mode="normal" in2="BackgroundImageFix" result="effect1_dropShadow"/><feBlend mode="normal" in="SourceGraphic" in2="effect1_dropShadow" result="shape"/></filter><filter id="shadow7" x="97.7" y="540.4" width="197.7" height="96" filterUnits="userSpaceOnUse" color-interpolation-filters="sRGB"><feFlood flood-opacity="0" result="BackgroundImageFix"/><feColorMatrix in="SourceAlpha" type="matrix" values="0 0 0 0 0 0 0 0 0 0 0 0 0 0 0 0 0 0 127 0" result="hardAlpha"/><feOffset dx="0" dy="6"/><feColorMatrix type="matrix" values="0 0 0 0 0.169 0 0 0 0 0.541 0 0 0 0 0.345 0 0 0 1 0"/><feBlend mode="normal" in2="BackgroundImageFix" result="effect1_dropShadow"/><feBlend mode="normal" in="SourceGraphic" in2="effect1_dropShadow" result="shape"/></filter></defs><g id="background"><rect width="393" height="852" fill="rgb(255, 248, 239)"/><rect width="393" height="852" fill="url(#glowA)"/><rect width="393" height="852" fill="url(#glowB)"/></g><g id="div"><g id="screen"><g id="topbar"><g id="Back"><rect x="16" y="12" width="64" height="64" rx="32" fill="rgb(255, 255, 255)" filter="url(#shadow1)"/><g id="svg" transform="translate(30 26) scale(0.75)"><path d="M28 10 14 24l14 14" fill="none" stroke="rgb(74, 59, 53)" stroke-width="4px" stroke-linecap="round" stroke-linejoin="round"></path></g></g><g id="h2"><text x="90" y="52.5" font-family="ui-rounded, 'Hiragino Maru Gothic ProN', 'SF Pro Rounded', Nunito, 'Segoe UI', system-ui, sans-serif" font-size="20.8" font-weight="700" fill="rgb(74, 59, 53)" xml:space="preserve">Type a word or name</text></g></g><g id="entry-body"><g id="for-grownups"><text x="16" y="101" font-family="ui-rounded, 'Hiragino Maru Gothic ProN', 'SF Pro Rounded', Nunito, 'Segoe UI', system-ui, sans-serif" font-size="16" font-weight="400" fill="rgb(138, 119, 108)" xml:space="preserve">For grown-ups: type a name or word in English, or</text><text x="16" y="122" font-family="ui-rounded, 'Hiragino Maru Gothic ProN', 'SF Pro Rounded', Nunito, 'Segoe UI', system-ui, sans-serif" font-size="16" font-weight="400" fill="rgb(138, 119, 108)" xml:space="preserve">how it sounds (ne-ko). Check the letters, then hand</text><text x="16" y="143" font-family="ui-rounded, 'Hiragino Maru Gothic ProN', 'SF Pro Rounded', Nunito, 'Segoe UI', system-ui, sans-serif" font-size="16" font-weight="400" fill="rgb(138, 119, 108)" xml:space="preserve">over.</text></g><g id="Word-or-name"><rect x="17.5" y="162.5" width="358" height="65" rx="16.5" fill="rgb(255, 255, 255)" stroke="rgb(239, 217, 189)" stroke-width="3"/><text x="37" y="206" font-family="ui-rounded, 'Hiragino Maru Gothic ProN', 'SF Pro Rounded', Nunito, 'Segoe UI', system-ui, sans-serif" font-size="25.6" font-weight="400" fill="rgb(74, 59, 53)" xml:space="preserve">neko</text></g><g id="hint"><text x="16" y="260" font-family="ui-rounded, 'Hiragino Maru Gothic ProN', 'SF Pro Rounded', Nunito, 'Segoe UI', system-ui, sans-serif" font-size="16" font-weight="400" fill="rgb(138, 119, 108)" xml:space="preserve">Spelled by sound. Check the tiles below.</text></g><g id="tiles"><g id="ね"><rect x="16" y="279.4" width="76" height="76" rx="18" fill="rgb(255, 255, 255)" filter="url(#shadow2)"/><g id="svg-2" transform="translate(26 289.4) scale(0.5138)"><path d="M33.29,14.5c1.62,1.62,2.1,3.21,1.88,5.88c-1.03,11.93-2.06,31.66-2.53,53.12c-0.1,4.62-0.18,9.31-0.22,14" fill="none" stroke="rgb(74, 59, 53)" stroke-width="6px" stroke-linecap="round" stroke-linejoin="round"></path><path d="M17.16,37.88c1.62,0.88,3.25,1.38,5.62,0.75c2.14-0.56,7.8-2.31,12.37-4.03c6.26-2.35,6.88-1.47,3.12,3.63c-5.56,7.53-13.02,17.38-18.48,26.77c-5.6,9.62-3.45,8.3,2,3c19.12-18.62,38.5-39.12,54.12-39.12c11.38,0,12.88,11.25,12.88,32.5c0,28.62-30.18,24.88-30.18,16.26c0-9.63,18.73-7.82,28.06-1.88c2.75,1.75,5.88,4.88,7.5,6.75" fill="none" stroke="rgb(74, 59, 53)" stroke-width="6px" stroke-linecap="round" stroke-linejoin="round"></path></g></g><g id="こ"><rect x="102" y="279.4" width="76" height="76" rx="18" fill="rgb(255, 255, 255)" filter="url(#shadow3)"/><g id="svg-3" transform="translate(112 289.4) scale(0.5138)"><path d="M34.75,26.75c1.12,0.88,2.91,2.01,6,1.5c7.62-1.25,14.11-2.56,22.38-2.62c15.5-0.12,5.88,5-5.75,9" fill="none" stroke="rgb(74, 59, 53)" stroke-width="6px" stroke-linecap="round" stroke-linejoin="round"></path><path d="M30,68.12c2.25,14.5,15.26,17.96,31,16.75c6.5-0.5,11.88-1.25,17.62-2.88" fill="none" stroke="rgb(74, 59, 53)" stroke-width="6px" stroke-linecap="round" stroke-linejoin="round"></path></g></g><g id="Add-a-letter"><rect x="189.5" y="280.9" width="73" height="73" rx="16.5" fill="none" stroke="rgb(239, 217, 189)" stroke-width="3"/><g id="svg-4" transform="translate(208 299.4) scale(0.75)"><path d="M24 10v28M10 24h28" fill="none" stroke="rgb(138, 119, 108)" stroke-width="4px" stroke-linecap="round" stroke-linejoin="round"></path></g></g></g><g id="tile-tools"><g id="pill-btn"><rect x="16" y="377.4" width="131.3" height="52" rx="26" fill="rgb(255, 159, 90)" filter="url(#shadow4)"/><g id="span"><g id="svg-5" transform="translate(36 391.4) scale(0.5)"><path d="M10 17h26l-7-7M38 31H12l7 7" fill="none" stroke="rgb(255, 255, 255)" stroke-width="4px" stroke-linecap="round" stroke-linejoin="round"></path></g></g><text x="68" y="410.4" font-family="ui-rounded, 'Hiragino Maru Gothic ProN', 'SF Pro Rounded', Nunito, 'Segoe UI', system-ui, sans-serif" font-size="16.8" font-weight="700" fill="rgb(255, 255, 255)" xml:space="preserve">Change</text></g><g id="pill-btn-2"><rect x="159.3" y="377.4" width="135.3" height="52" rx="26" fill="rgb(255, 255, 255)" filter="url(#shadow5)"/><g id="span-2"><g id="svg-6" transform="translate(179.3 391.4) scale(0.5)"><path d="M9 13h30M19 13V8h10v5M13 13l2 27h18l2-27" fill="none" stroke="rgb(74, 59, 53)" stroke-width="4px" stroke-linecap="round" stroke-linejoin="round"></path></g></g><text x="211.3" y="410.4" font-family="ui-rounded, 'Hiragino Maru Gothic ProN', 'SF Pro Rounded', Nunito, 'Segoe UI', system-ui, sans-serif" font-size="16.8" font-weight="700" fill="rgb(74, 59, 53)" xml:space="preserve">Remove</text></g><g id="pill-btn-3"><rect x="16" y="441.4" width="125.6" height="52" rx="26" fill="rgb(255, 255, 255)" filter="url(#shadow6)"/><g id="span-3"><g id="svg-7" transform="translate(36 455.4) scale(0.5)"><path d="M8 19h7l10-8v26l-10-8H8z" fill="rgb(74, 59, 53)" stroke-width="3px" stroke="rgb(74, 59, 53)" stroke-linecap="round" stroke-linejoin="round"></path><path d="M32 17a10 10 0 0 1 0 14" fill="none" stroke="rgb(74, 59, 53)" stroke-width="4px" stroke-linecap="round" stroke-linejoin="round"></path></g></g><text x="68" y="474.4" font-family="ui-rounded, 'Hiragino Maru Gothic ProN', 'SF Pro Rounded', Nunito, 'Segoe UI', system-ui, sans-serif" font-size="16.8" font-weight="700" fill="rgb(74, 59, 53)" xml:space="preserve">Hear it</text></g></g><g id="mora-count"><text x="16" y="524.4" font-family="ui-rounded, 'Hiragino Maru Gothic ProN', 'SF Pro Rounded', Nunito, 'Segoe UI', system-ui, sans-serif" font-size="16" font-weight="400" fill="rgb(138, 119, 108)" xml:space="preserve">2 / 14 sounds</text></g><g id="Start"><rect x="107.7" y="550.4" width="177.7" height="76" rx="38" fill="rgb(63, 174, 116)" filter="url(#shadow7)"/><g id="span-4"><g id="svg-8" transform="translate(135.7 568.4) scale(0.8333)"><path d="M16 10v28l22-14z" fill="rgb(255, 255, 255)" stroke="rgb(255, 255, 255)" stroke-width="4px" stroke-linecap="round" stroke-linejoin="round"></path></g></g><text x="187.7" y="598.4" font-family="ui-rounded, 'Hiragino Maru Gothic ProN', 'SF Pro Rounded', Nunito, 'Segoe UI', system-ui, sans-serif" font-size="24" font-weight="800" fill="rgb(255, 255, 255)" xml:space="preserve">Start</text></g></g></g></g></svg>