<svg xmlns="http://www.w3.org/2000/svg" width="393" height="881" viewBox="0 0 393 881" fill="none"><title>Home with practised words (phone)</title><defs><radialGradient id="glowA" cx="58.949999999999996" cy="0" r="396.45" gradientUnits="userSpaceOnUse"><stop stop-color="#fff3e2"/><stop offset="1" stop-color="#fff3e2" stop-opacity="0"/></radialGradient><radialGradient id="glowB" cx="393" cy="881" r="352.40000000000003" gradientUnits="userSpaceOnUse"><stop stop-color="#ffeaf0"/><stop offset="1" stop-color="#ffeaf0" stop-opacity="0"/></radialGradient><filter id="shadow1" x="283" y="-5.5" width="132" height="132" filterUnits="userSpaceOnUse" color-interpolation-filters="sRGB"><feFlood flood-opacity="0" result="BackgroundImageFix"/><feColorMatrix in="SourceAlpha" type="matrix" values="0 0 0 0 0 0 0 0 0 0 0 0 0 0 0 0 0 0 127 0" result="hardAlpha"/><feOffset dx="0" dy="4"/><feColorMatrix type="matrix" values="0 0 0 0 0.937 0 0 0 0 0.851 0 0 0 0 0.741 0 0 0 1 0"/><feBlend mode="normal" in2="BackgroundImageFix" result="effect1_dropShadow"/><feColorMatrix in="SourceAlpha" type="matrix" values="0 0 0 0 0 0 0 0 0 0 0 0 0 0 0 0 0 0 127 0" result="hardAlpha"/><feOffset dx="0" dy="6"/><feGaussianBlur stdDeviation="7"/><feColorMatrix type="matrix" values="0 0 0 0 0.627 0 0 0 0 0.431 0 0 0 0 0.235 0 0 0 0.12 0"/><feBlend mode="normal" in2="effect1_dropShadow" result="effect2_dropShadow"/><feBlend mode="normal" in="SourceGraphic" in2="effect2_dropShadow" result="shape"/></filter><filter id="shadow2" x="6" y="119" width="192.5" height="210" filterUnits="userSpaceOnUse" color-interpolation-filters="sRGB"><feFlood flood-opacity="0" result="BackgroundImageFix"/><feColorMatrix in="SourceAlpha" type="matrix" values="0 0 0 0 0 0 0 0 0 0 0 0 0 0 0 0 0 0 127 0" result="hardAlpha"/><feOffset dx="0" dy="6"/><feColorMatrix type="matrix" values="0 0 0 0 0.957 0 0 0 0 0.773 0 0 0 0 0.592 0 0 0 1 0"/><feBlend mode="normal" in2="BackgroundImageFix" result="effect1_dropShadow"/><feBlend mode="normal" in="SourceGraphic" in2="effect1_dropShadow" result="shape"/></filter><filter id="shadow3" x="194.5" y="119" width="192.5" height="210" filterUnits="userSpaceOnUse" color-interpolation-filters="sRGB"><feFlood flood-opacity="0" result="BackgroundImageFix"/><feColorMatrix in="SourceAlpha" type="matrix" values="0 0 0 0 0 0 0 0 0 0 0 0 0 0 0 0 0 0 127 0" result="hardAlpha"/><feOffset dx="0" dy="6"/><feColorMatrix type="matrix" values="0 0 0 0 0.682 0 0 0 0 0.847 0 0 0 0 0.949 0 0 0 1 0"/><feBlend mode="normal" in2="BackgroundImageFix" result="effect1_dropShadow"/><feBlend mode="normal" in="SourceGraphic" in2="effect1_dropShadow" result="shape"/></filter><filter id="shadow4" x="8" y="331" width="189.5" height="182" filterUnits="userSpaceOnUse" color-interpolation-filters="sRGB"><feFlood flood-opacity="0" result="BackgroundImageFix"/><feColorMatrix in="SourceAlpha" type="matrix" values="0 0 0 0 0 0 0 0 0 0 0 0 0 0 0 0 0 0 127 0" result="hardAlpha"/><feOffset dx="0" dy="4"/><feColorMatrix type="matrix" values="0 0 0 0 0.937 0 0 0 0 0.851 0 0 0 0 0.741 0 0 0 1 0"/><feBlend mode="normal" in2="BackgroundImageFix" result="effect1_dropShadow"/><feBlend mode="normal" in="SourceGraphic" in2="effect1_dropShadow" result="shape"/></filter><filter id="shadow5" x="195.5" y="331" width="189.5" height="182" filterUnits="userSpaceOnUse" color-interpolation-filters="sRGB"><feFlood flood-opacity="0" result="BackgroundImageFix"/><feColorMatrix in="SourceAlpha" type="matrix" values="0 0 0 0 0 0 0 0 0 0 0 0 0 0 0 0 0 0 127 0" result="hardAlpha"/><feOffset dx="0" dy="4"/><feColorMatrix type="matrix" values="0 0 0 0 0.937 0 0 0 0 0.851 0 0 0 0 0.741 0 0 0 1 0"/><feBlend mode="normal" in2="BackgroundImageFix" result="effect1_dropShadow"/><feBlend mode="normal" in="SourceGraphic" in2="effect1_dropShadow" result="shape"/></filter><filter id="shadow6" x="8" y="511" width="189.5" height="182" filterUnits="userSpaceOnUse" color-interpolation-filters="sRGB"><feFlood flood-opacity="0" result="BackgroundImageFix"/><feColorMatrix in="SourceAlpha" type="matrix" values="0 0 0 0 0 0 0 0 0 0 0 0 0 0 0 0 0 0 127 0" result="hardAlpha"/><feOffset dx="0" dy="4"/><feColorMatrix type="matrix" values="0 0 0 0 0.937 0 0 0 0 0.851 0 0 0 0 0.741 0 0 0 1 0"/><feBlend mode="normal" in2="BackgroundImageFix" result="effect1_dropShadow"/><feBlend mode="normal" in="SourceGraphic" in2="effect1_dropShadow" result="shape"/></filter><filter id="shadow7" x="195.5" y="511" width="189.5" height="182" filterUnits="userSpaceOnUse" color-interpolation-filters="sRGB"><feFlood flood-opacity="0" result="BackgroundImageFix"/><feColorMatrix in="SourceAlpha" type="matrix" values="0 0 0 0 0 0 0 0 0 0 0 0 0 0 0 0 0 0 127 0" result="hardAlpha"/><feOffset dx="0" dy="4"/><feColorMatrix type="matrix" values="0 0 0 0 0.937 0 0 0 0 0.851 0 0 0 0 0.741 0 0 0 1 0"/><feBlend mode="normal" in2="BackgroundImageFix" result="effect1_dropShadow"/><feBlend mode="normal" in="SourceGraphic" in2="effect1_dropShadow" result="shape"/></filter><filter id="shadow8" x="8" y="691" width="189.5" height="182" filterUnits="userSpaceOnUse" color-interpolation-filters="sRGB"><feFlood flood-opacity="0" result="BackgroundImageFix"/><feColorMatrix in="SourceAlpha" type="matrix" values="0 0 0 0 0 0 0 0 0 0 0 0 0 0 0 0 0 0 127 0" result="hardAlpha"/><feOffset dx="0" dy="4"/><feColorMatrix type="matrix" values="0 0 0 0 0.937 0 0 0 0 0.851 0 0 0 0 0.741 0 0 0 1 0"/><feBlend mode="normal" in2="BackgroundImageFix" result="effect1_dropShadow"/><feBlend mode="normal" in="SourceGraphic" in2="effect1_dropShadow" result="shape"/></filter></defs><g id="background"><rect width="393" height="881" fill="rgb(255, 248, 239)"/><rect width="393" height="881" fill="url(#glowA)"/><rect width="393" height="881" fill="url(#glowB)"/></g><g id="div"><g id="screen"><g id="home-head"><g id="svg" transform="translate(16 12.2) scale(0.8)"><path d="M60 10C38 10 12 66 12 86c0 14 12 22 48 22s48-8 48-22C108 66 82 10 60 10z" fill="rgb(255, 250, 242)" stroke="rgb(74, 59, 53)" stroke-width="4px" stroke-linecap="butt" stroke-linejoin="miter"></path><rect x="30" y="80" width="60" height="28" rx="6" fill="rgb(54, 88, 74)" stroke="none" stroke-width="1px" stroke-linecap="butt" stroke-linejoin="miter"></rect><circle cx="46" cy="58" r="5" fill="rgb(74, 59, 53)" stroke="none" stroke-width="1px" stroke-linecap="butt" stroke-linejoin="miter"></circle><circle cx="74" cy="58" r="5" fill="rgb(74, 59, 53)" stroke="none" stroke-width="1px" stroke-linecap="butt" stroke-linejoin="miter"></circle><circle cx="38" cy="68" r="6" fill="rgb(255, 180, 168)" opacity="0.8" stroke="none" stroke-width="1px" stroke-linecap="butt" stroke-linejoin="miter"></circle><circle cx="82" cy="68" r="6" fill="rgb(255, 180, 168)" opacity="0.8" stroke="none" stroke-width="1px" stroke-linecap="butt" stroke-linejoin="miter"></circle><path d="M50 70q10 9 20 0" stroke="rgb(74, 59, 53)" stroke-width="4px" fill="none" stroke-linecap="round" stroke-linejoin="miter"></path></g><g id="title"><g id="h1"><text x="124" y="40" font-family="ui-rounded, 'Hiragino Maru Gothic ProN', 'SF Pro Rounded', Nunito, 'Segoe UI', system-ui, sans-serif" font-size="25.6" font-weight="700" fill="rgb(74, 59, 53)" letter-spacing="0.256" xml:space="preserve">Hiragana</text><text x="124" y="74" font-family="ui-rounded, 'Hiragino Maru Gothic ProN', 'SF Pro Rounded', Nunito, 'Segoe UI', system-ui, sans-serif" font-size="25.6" font-weight="700" fill="rgb(74, 59, 53)" letter-spacing="0.256" xml:space="preserve">Buddy</text></g><g id="subtitle"><text x="124" y="101" font-family="ui-rounded, 'Hiragino Maru Gothic ProN', 'SF Pro Rounded', Nunito, 'Segoe UI', system-ui, sans-serif" font-size="16.8" font-weight="400" fill="rgb(138, 119, 108)" xml:space="preserve">ひらがな の ともだち</text></g></g><g id="Grown-ups"><rect x="321" y="32.5" width="56" height="56" rx="28" fill="rgb(255, 255, 255)" filter="url(#shadow1)"/><g id="svg-2" transform="translate(334 45.5) scale(0.625)"><circle cx="24" cy="24" r="6" fill="none" stroke="rgb(138, 119, 108)" stroke-width="4px" stroke-linecap="round" stroke-linejoin="round"></circle><path d="M24 5v6M24 37v6M5 24h6M37 24h6M10.6 10.6l4.2 4.2M33.2 33.2l4.2 4.2M10.6 37.4l4.2-4.2M33.2 14.8l4.2-4.2" fill="none" stroke="rgb(138, 119, 108)" stroke-width="4px" stroke-linecap="round" stroke-linejoin="round"></path></g></g></g><g id="big-choices"><g id="go-word"><rect x="16" y="129" width="172.5" height="190" rx="28" fill="rgb(255, 225, 196)" filter="url(#shadow2)"/><g id="big-icon"><g id="svg-3" transform="translate(50.3 153.5) scale(2.1667)"><path d="M6 10h36v22H24l-9 8v-8H6z" fill="rgb(255, 255, 255)" stroke="rgb(74, 59, 53)" stroke-width="4px" stroke-linecap="round" stroke-linejoin="round"></path><path d="M29 35 41 23l4 4-12 12h-4z" fill="rgb(255, 210, 122)" stroke="rgb(74, 59, 53)" stroke-width="4px" stroke-linecap="round" stroke-linejoin="round"></path></g></g><g id="big-label"><text x="37.8" y="291.5" font-family="ui-rounded, 'Hiragino Maru Gothic ProN', 'SF Pro Rounded', Nunito, 'Segoe UI', system-ui, sans-serif" font-size="20" font-weight="800" fill="rgb(74, 59, 53)" xml:space="preserve">Write a word</text></g></g><g id="go-letter"><rect x="204.5" y="129" width="172.5" height="190" rx="28" fill="rgb(217, 240, 255)" filter="url(#shadow3)"/><g id="big-icon-2"><rect x="252.8" y="167.5" width="76" height="76" rx="22" fill="rgb(255, 255, 255)"/><rect x="254.3" y="169" width="73" height="73" rx="20.5" fill="none" stroke="rgb(174, 216, 242)" stroke-width="3"/><g id="svg-4" transform="translate(266.8 181.5) scale(0.4404)"><path d="M31.01,33c0.88,0.88,2.75,1.82,5.25,1.75c8.62-0.25,20-2.12,29.5-4.25c1.51-0.34,4.62-0.88,6.62-0.5" fill="none" stroke="rgb(74, 59, 53)" stroke-width="6px" stroke-linecap="round" stroke-linejoin="round"></path><path d="M49.76,17.62c0.88,1,1.82,3.26,1.38,5.25c-3.75,16.75-6.25,38.13-5.13,53.63c0.41,5.7,1.88,10.88,3.38,13.62" fill="none" stroke="rgb(74, 59, 53)" stroke-width="6px" stroke-linecap="round" stroke-linejoin="round"></path><path d="M65.63,44.12c0.75,1.12,1.16,4.39,0.5,6.12c-4.62,12.26-11.24,23.76-25.37,35.76c-6.86,5.83-15.88,3.75-16.25-8.38c-0.34-10.87,13.38-23.12,32.38-26.74c12.42-2.37,27,1.38,30.5,12.75c4.05,13.18-3.76,26.37-20.88,30.49" fill="none" stroke="rgb(74, 59, 53)" stroke-width="6px" stroke-linecap="round" stroke-linejoin="round"></path></g></g><g id="big-label-2"><text x="241.5" y="277.5" font-family="ui-rounded, 'Hiragino Maru Gothic ProN', 'SF Pro Rounded', Nunito, 'Segoe UI', system-ui, sans-serif" font-size="20" font-weight="800" fill="rgb(74, 59, 53)" xml:space="preserve">One letter</text></g></g></g><g id="Words-you-practised"><g id="shelf-card"><rect x="16" y="339" width="173.5" height="166" rx="22" fill="rgb(255, 255, 255)" filter="url(#shadow4)"/><g id="Practise-ki"><g id="shelf-kana"><g id="svg-5" transform="translate(85.8 351) scale(0.3119)"><path d="M30.5,30.25c1.88,0.75,4.64,1.06,5.88,0.88c6.75-1,22.25-4.5,26.5-6c2.17-0.76,3.5-1.25,4.88-2.12" fill="none" stroke="rgb(74, 59, 53)" stroke-width="6px" stroke-linecap="round" stroke-linejoin="round"></path><path d="M36.25,48.7c2.01,0.85,4.97,1.2,6.29,0.99c7.23-1.13,23.82-5.09,28.37-6.79c2.32-0.86,3.75-1.41,5.22-2.4" fill="none" stroke="rgb(74, 59, 53)" stroke-width="6px" stroke-linecap="round" stroke-linejoin="round"></path><path d="M42,14.12c1.5,0.88,3.13,2.94,4,5.12c5.5,13.76,16,29.26,26.37,40.76c7.64,8.47,9.12,9.38-6,3.88" fill="none" stroke="rgb(74, 59, 53)" stroke-width="6px" stroke-linecap="round" stroke-linejoin="round"></path><path d="M33.75,83.25c10.62,9.75,27.25,8.62,38.12,5" fill="none" stroke="rgb(74, 59, 53)" stroke-width="6px" stroke-linecap="round" stroke-linejoin="round"></path></g></g><g id="shelf-label"><text x="96.3" y="407" font-family="ui-rounded, 'Hiragino Maru Gothic ProN', 'SF Pro Rounded', Nunito, 'Segoe UI', system-ui, sans-serif" font-size="15.2" font-weight="700" fill="rgb(138, 119, 108)" xml:space="preserve">ki</text></g><g id="1-star"><g id="star"><g id="svg-6" transform="translate(68.8 417) scale(0.4167)"><path d="M24 4l6 13 14 1.6-10.5 9.6 3 14L24 35l-12.5 7.2 3-14L4 18.6 18 17z" fill="rgb(255, 201, 60)" stroke="rgb(255, 201, 60)" stroke-width="3px" stroke-linejoin="round" stroke-linecap="butt"></path></g></g><g id="star-2"><g id="svg-7" transform="translate(92.8 417) scale(0.4167)"><path d="M24 4l6 13 14 1.6-10.5 9.6 3 14L24 35l-12.5 7.2 3-14L4 18.6 18 17z" fill="rgb(241, 230, 216)" stroke="rgb(241, 230, 216)" stroke-width="3px" stroke-linejoin="round" stroke-linecap="butt"></path></g></g><g id="star-3"><g id="svg-8" transform="translate(116.8 417) scale(0.4167)"><path d="M24 4l6 13 14 1.6-10.5 9.6 3 14L24 35l-12.5 7.2 3-14L4 18.6 18 17z" fill="rgb(241, 230, 216)" stroke="rgb(241, 230, 216)" stroke-width="3px" stroke-linejoin="round" stroke-linecap="butt"></path></g></g></g></g><g id="Play-it"><line x1="28" y1="445.5" x2="177.5" y2="445.5" stroke="rgb(246, 234, 219)" stroke-width="1"/><g id="shelf-play-icon"><g id="svg-9" transform="translate(87.8 456.5) scale(0.625)"><path d="M8 19h7l10-8v26l-10-8H8z" fill="rgb(255, 159, 90)" stroke-width="3px" stroke="rgb(255, 159, 90)" stroke-linecap="round" stroke-linejoin="round"></path><path d="M32 17a10 10 0 0 1 0 14" fill="none" stroke="rgb(255, 159, 90)" stroke-width="4px" stroke-linecap="round" stroke-linejoin="round"></path></g></g></g></g><g id="shelf-card-2"><rect x="203.5" y="339" width="173.5" height="166" rx="22" fill="rgb(255, 255, 255)" filter="url(#shadow5)"/><g id="Practise-shi"><g id="shelf-kana-2"><g id="svg-10" transform="translate(273.3 351) scale(0.3119)"><path d="M39.12,17.5c1.25,3.12,0.93,6.74,0.38,10.25c-2.12,13.5-3,26.5-3,39.12c0,27.38,19.88,30.12,45.5,17.25" fill="none" stroke="rgb(74, 59, 53)" stroke-width="6px" stroke-linecap="round" stroke-linejoin="round"></path></g></g><g id="shelf-label-2"><text x="280.2" y="407" font-family="ui-rounded, 'Hiragino Maru Gothic ProN', 'SF Pro Rounded', Nunito, 'Segoe UI', system-ui, sans-serif" font-size="15.2" font-weight="700" fill="rgb(138, 119, 108)" xml:space="preserve">shi</text></g><g id="3-stars"><g id="star-4"><g id="svg-11" transform="translate(256.3 417) scale(0.4167)"><path d="M24 4l6 13 14 1.6-10.5 9.6 3 14L24 35l-12.5 7.2 3-14L4 18.6 18 17z" fill="rgb(255, 201, 60)" stroke="rgb(255, 201, 60)" stroke-width="3px" stroke-linejoin="round" stroke-linecap="butt"></path></g></g><g id="star-5"><g id="svg-12" transform="translate(280.3 417) scale(0.4167)"><path d="M24 4l6 13 14 1.6-10.5 9.6 3 14L24 35l-12.5 7.2 3-14L4 18.6 18 17z" fill="rgb(255, 201, 60)" stroke="rgb(255, 201, 60)" stroke-width="3px" stroke-linejoin="round" stroke-linecap="butt"></path></g></g><g id="star-6"><g id="svg-13" transform="translate(304.3 417) scale(0.4167)"><path d="M24 4l6 13 14 1.6-10.5 9.6 3 14L24 35l-12.5 7.2 3-14L4 18.6 18 17z" fill="rgb(255, 201, 60)" stroke="rgb(255, 201, 60)" stroke-width="3px" stroke-linejoin="round" stroke-linecap="butt"></path></g></g></g></g><g id="Play-it-2"><line x1="215.5" y1="445.5" x2="365" y2="445.5" stroke="rgb(246, 234, 219)" stroke-width="1"/><g id="shelf-play-icon-2"><g id="svg-14" transform="translate(275.3 456.5) scale(0.625)"><path d="M8 19h7l10-8v26l-10-8H8z" fill="rgb(255, 159, 90)" stroke-width="3px" stroke="rgb(255, 159, 90)" stroke-linecap="round" stroke-linejoin="round"></path><path d="M32 17a10 10 0 0 1 0 14" fill="none" stroke="rgb(255, 159, 90)" stroke-width="4px" stroke-linecap="round" stroke-linejoin="round"></path></g></g></g></g><g id="shelf-card-3"><rect x="16" y="519" width="173.5" height="166" rx="22" fill="rgb(255, 255, 255)" filter="url(#shadow6)"/><g id="Practise-Noah"><g id="shelf-kana-3"><g id="svg-15" transform="translate(67.8 531) scale(0.3119)"><path d="M53.82,28.62c1,1.5,1.34,4.12,0.88,6.62c-1.75,9.5-6.89,25-10.75,33.12c-9.63,20.26-16.55,14.74-24.38-1.98c-9.13-19.5,23.5-48.88,50.63-40.38c32.38,10.15,28,54.62-4.75,60.88" fill="none" stroke="rgb(74, 59, 53)" stroke-width="6px" stroke-linecap="round" stroke-linejoin="round"></path></g><g id="svg-16" transform="translate(103.8 531) scale(0.3119)"><path d="M31.01,33c0.88,0.88,2.75,1.82,5.25,1.75c8.62-0.25,20-2.12,29.5-4.25c1.51-0.34,4.62-0.88,6.62-0.5" fill="none" stroke="rgb(74, 59, 53)" stroke-width="6px" stroke-linecap="round" stroke-linejoin="round"></path><path d="M49.76,17.62c0.88,1,1.82,3.26,1.38,5.25c-3.75,16.75-6.25,38.13-5.13,53.63c0.41,5.7,1.88,10.88,3.38,13.62" fill="none" stroke="rgb(74, 59, 53)" stroke-width="6px" stroke-linecap="round" stroke-linejoin="round"></path><path d="M65.63,44.12c0.75,1.12,1.16,4.39,0.5,6.12c-4.62,12.26-11.24,23.76-25.37,35.76c-6.86,5.83-15.88,3.75-16.25-8.38c-0.34-10.87,13.38-23.12,32.38-26.74c12.42-2.37,27,1.38,30.5,12.75c4.05,13.18-3.76,26.37-20.88,30.49" fill="none" stroke="rgb(74, 59, 53)" stroke-width="6px" stroke-linecap="round" stroke-linejoin="round"></path></g></g><g id="shelf-label-3"><text x="83.5" y="587" font-family="ui-rounded, 'Hiragino Maru Gothic ProN', 'SF Pro Rounded', Nunito, 'Segoe UI', system-ui, sans-serif" font-size="15.2" font-weight="700" fill="rgb(138, 119, 108)" xml:space="preserve">Noah</text></g><g id="3-stars-2"><g id="star-7"><g id="svg-17" transform="translate(68.8 597) scale(0.4167)"><path d="M24 4l6 13 14 1.6-10.5 9.6 3 14L24 35l-12.5 7.2 3-14L4 18.6 18 17z" fill="rgb(255, 201, 60)" stroke="rgb(255, 201, 60)" stroke-width="3px" stroke-linejoin="round" stroke-linecap="butt"></path></g></g><g id="star-8"><g id="svg-18" transform="translate(92.8 597) scale(0.4167)"><path d="M24 4l6 13 14 1.6-10.5 9.6 3 14L24 35l-12.5 7.2 3-14L4 18.6 18 17z" fill="rgb(255, 201, 60)" stroke="rgb(255, 201, 60)" stroke-width="3px" stroke-linejoin="round" stroke-linecap="butt"></path></g></g><g id="star-9"><g id="svg-19" transform="translate(116.8 597) scale(0.4167)"><path d="M24 4l6 13 14 1.6-10.5 9.6 3 14L24 35l-12.5 7.2 3-14L4 18.6 18 17z" fill="rgb(255, 201, 60)" stroke="rgb(255, 201, 60)" stroke-width="3px" stroke-linejoin="round" stroke-linecap="butt"></path></g></g></g></g><g id="Play-it-3"><line x1="28" y1="625.5" x2="177.5" y2="625.5" stroke="rgb(246, 234, 219)" stroke-width="1"/><g id="shelf-play-icon-3"><g id="svg-20" transform="translate(87.8 636.5) scale(0.625)"><path d="M8 19h7l10-8v26l-10-8H8z" fill="rgb(255, 159, 90)" stroke-width="3px" stroke="rgb(255, 159, 90)" stroke-linecap="round" stroke-linejoin="round"></path><path d="M32 17a10 10 0 0 1 0 14" fill="none" stroke="rgb(255, 159, 90)" stroke-width="4px" stroke-linecap="round" stroke-linejoin="round"></path></g></g></g></g><g id="shelf-card-4"><rect x="203.5" y="519" width="173.5" height="166" rx="22" fill="rgb(255, 255, 255)" filter="url(#shadow7)"/><g id="Practise-neko"><g id="shelf-kana-4"><g id="svg-21" transform="translate(255.3 531) scale(0.3119)"><path d="M33.29,14.5c1.62,1.62,2.1,3.21,1.88,5.88c-1.03,11.93-2.06,31.66-2.53,53.12c-0.1,4.62-0.18,9.31-0.22,14" fill="none" stroke="rgb(74, 59, 53)" stroke-width="6px" stroke-linecap="round" stroke-linejoin="round"></path><path d="M17.16,37.88c1.62,0.88,3.25,1.38,5.62,0.75c2.14-0.56,7.8-2.31,12.37-4.03c6.26-2.35,6.88-1.47,3.12,3.63c-5.56,7.53-13.02,17.38-18.48,26.77c-5.6,9.62-3.45,8.3,2,3c19.12-18.62,38.5-39.12,54.12-39.12c11.38,0,12.88,11.25,12.88,32.5c0,28.62-30.18,24.88-30.18,16.26c0-9.63,18.73-7.82,28.06-1.88c2.75,1.75,5.88,4.88,7.5,6.75" fill="none" stroke="rgb(74, 59, 53)" stroke-width="6px" stroke-linecap="round" stroke-linejoin="round"></path></g><g id="svg-22" transform="translate(291.3 531) scale(0.3119)"><path d="M34.75,26.75c1.12,0.88,2.91,2.01,6,1.5c7.62-1.25,14.11-2.56,22.38-2.62c15.5-0.12,5.88,5-5.75,9" fill="none" stroke="rgb(74, 59, 53)" stroke-width="6px" stroke-linecap="round" stroke-linejoin="round"></path><path d="M30,68.12c2.25,14.5,15.26,17.96,31,16.75c6.5-0.5,11.88-1.25,17.62-2.88" fill="none" stroke="rgb(74, 59, 53)" stroke-width="6px" stroke-linecap="round" stroke-linejoin="round"></path></g></g><g id="shelf-label-4"><text x="272.8" y="587" font-family="ui-rounded, 'Hiragino Maru Gothic ProN', 'SF Pro Rounded', Nunito, 'Segoe UI', system-ui, sans-serif" font-size="15.2" font-weight="700" fill="rgb(138, 119, 108)" xml:space="preserve">neko</text></g><g id="2-stars"><g id="star-10"><g id="svg-23" transform="translate(256.3 597) scale(0.4167)"><path d="M24 4l6 13 14 1.6-10.5 9.6 3 14L24 35l-12.5 7.2 3-14L4 18.6 18 17z" fill="rgb(255, 201, 60)" stroke="rgb(255, 201, 60)" stroke-width="3px" stroke-linejoin="round" stroke-linecap="butt"></path></g></g><g id="star-11"><g id="svg-24" transform="translate(280.3 597) scale(0.4167)"><path d="M24 4l6 13 14 1.6-10.5 9.6 3 14L24 35l-12.5 7.2 3-14L4 18.6 18 17z" fill="rgb(255, 201, 60)" stroke="rgb(255, 201, 60)" stroke-width="3px" stroke-linejoin="round" stroke-linecap="butt"></path></g></g><g id="star-12"><g id="svg-25" transform="translate(304.3 597) scale(0.4167)"><path d="M24 4l6 13 14 1.6-10.5 9.6 3 14L24 35l-12.5 7.2 3-14L4 18.6 18 17z" fill="rgb(241, 230, 216)" stroke="rgb(241, 230, 216)" stroke-width="3px" stroke-linejoin="round" stroke-linecap="butt"></path></g></g></g></g><g id="Play-it-4"><line x1="215.5" y1="625.5" x2="365" y2="625.5" stroke="rgb(246, 234, 219)" stroke-width="1"/><g id="shelf-play-icon-4"><g id="svg-26" transform="translate(275.3 636.5) scale(0.625)"><path d="M8 19h7l10-8v26l-10-8H8z" fill="rgb(255, 159, 90)" stroke-width="3px" stroke="rgb(255, 159, 90)" stroke-linecap="round" stroke-linejoin="round"></path><path d="M32 17a10 10 0 0 1 0 14" fill="none" stroke="rgb(255, 159, 90)" stroke-width="4px" stroke-linecap="round" stroke-linejoin="round"></path></g></g></g></g><g id="shelf-card-5"><rect x="16" y="699" width="173.5" height="166" rx="22" fill="rgb(255, 255, 255)" filter="url(#shadow8)"/><g id="Practise-Emma"><g id="shelf-kana-5"><g id="svg-27" transform="translate(67.8 711) scale(0.3119)"><path d="M40.52,13.25c5.62,2.12,10,3,14.12,3c8.27,0,8,1.12-0.38,5.5" fill="none" stroke="rgb(74, 59, 53)" stroke-width="6px" stroke-linecap="round" stroke-linejoin="round"></path><path d="M32.52,45.12c1.88,1.25,4.5,1.75,7.38,0.62c3.29-1.29,17-7.88,21.25-9.88c4.25-2,8.32,0.04,4.38,4.62c-12.26,14.27-27.26,31.52-39.51,44.4c-3.26,3.42-0.58,3.54,1.5,1.37c13.5-14.12,18.12-20.12,23.62-20.12c7.13,0,3.5,16.75,6.75,22.38c3.25,5.63,19.12,3.75,26.12,2.12" fill="none" stroke="rgb(74, 59, 53)" stroke-width="6px" stroke-linecap="round" stroke-linejoin="round"></path></g><g id="svg-28" transform="translate(103.8 711) scale(0.3119)"><path d="M29.83,32.28c2.2,1.15,4.43,1.5,7.14,1.26c11.54-1.04,25.94-3.12,34.66-4.85c2.87-0.57,5.45-0.44,7.13-0.44" fill="none" stroke="rgb(74, 59, 53)" stroke-width="6px" stroke-linecap="round" stroke-linejoin="round"></path><path d="M33.83,51.84c2.45,1.61,4.94,1.72,7.94,1.26c9.52-1.46,17.87-3.1,27.03-5.16c3.22-0.72,6.34-1.32,8.21-1.32" fill="none" stroke="rgb(74, 59, 53)" stroke-width="6px" stroke-linecap="round" stroke-linejoin="round"></path><path d="M55.81,14c1.52,1.8,1.8,4.57,1.8,7.19c0,2.63,0.46,43.88,0.46,54.25c0,21.3-30.07,19.96-30.07,9.86c0-10.79,25.88-9.93,38.57-3.18c6.12,3.25,11.55,6.38,14.8,9.13" fill="none" stroke="rgb(74, 59, 53)" stroke-width="6px" stroke-linecap="round" stroke-linejoin="round"></path></g></g><g id="shelf-label-5"><text x="80.7" y="767" font-family="ui-rounded, 'Hiragino Maru Gothic ProN', 'SF Pro Rounded', Nunito, 'Segoe UI', system-ui, sans-serif" font-size="15.2" font-weight="700" fill="rgb(138, 119, 108)" xml:space="preserve">Emma</text></g><g id="3-stars-3"><g id="star-13"><g id="svg-29" transform="translate(68.8 777) scale(0.4167)"><path d="M24 4l6 13 14 1.6-10.5 9.6 3 14L24 35l-12.5 7.2 3-14L4 18.6 18 17z" fill="rgb(255, 201, 60)" stroke="rgb(255, 201, 60)" stroke-width="3px" stroke-linejoin="round" stroke-linecap="butt"></path></g></g><g id="star-14"><g id="svg-30" transform="translate(92.8 777) scale(0.4167)"><path d="M24 4l6 13 14 1.6-10.5 9.6 3 14L24 35l-12.5 7.2 3-14L4 18.6 18 17z" fill="rgb(255, 201, 60)" stroke="rgb(255, 201, 60)" stroke-width="3px" stroke-linejoin="round" stroke-linecap="butt"></path></g></g><g id="star-15"><g id="svg-31" transform="translate(116.8 777) scale(0.4167)"><path d="M24 4l6 13 14 1.6-10.5 9.6 3 14L24 35l-12.5 7.2 3-14L4 18.6 18 17z" fill="rgb(255, 201, 60)" stroke="rgb(255, 201, 60)" stroke-width="3px" stroke-linejoin="round" stroke-linecap="butt"></path></g></g></g></g><g id="Play-it-5"><line x1="28" y1="805.5" x2="177.5" y2="805.5" stroke="rgb(246, 234, 219)" stroke-width="1"/><g id="shelf-play-icon-5"><g id="svg-32" transform="translate(87.8 816.5) scale(0.625)"><path d="M8 19h7l10-8v26l-10-8H8z" fill="rgb(255, 159, 90)" stroke-width="3px" stroke="rgb(255, 159, 90)" stroke-linecap="round" stroke-linejoin="round"></path><path d="M32 17a10 10 0 0 1 0 14" fill="none" stroke="rgb(255, 159, 90)" stroke-width="4px" stroke-linecap="round" stroke-linejoin="round"></path></g></g></g></g></g></g></g></svg>