<svg xmlns="http://www.w3.org/2000/svg" width="393" height="852" viewBox="0 0 393 852" fill="none"><title>Home, first visit (phone)</title><defs><radialGradient id="glowA" cx="58.949999999999996" cy="0" r="383.40000000000003" gradientUnits="userSpaceOnUse"><stop stop-color="#fff3e2"/><stop offset="1" stop-color="#fff3e2" stop-opacity="0"/></radialGradient><radialGradient id="glowB" cx="393" cy="852" r="340.8" gradientUnits="userSpaceOnUse"><stop stop-color="#ffeaf0"/><stop offset="1" stop-color="#ffeaf0" stop-opacity="0"/></radialGradient><filter id="shadow1" x="283" y="-5.5" width="132" height="132" filterUnits="userSpaceOnUse" color-interpolation-filters="sRGB"><feFlood flood-opacity="0" result="BackgroundImageFix"/><feColorMatrix in="SourceAlpha" type="matrix" values="0 0 0 0 0 0 0 0 0 0 0 0 0 0 0 0 0 0 127 0" result="hardAlpha"/><feOffset dx="0" dy="4"/><feColorMatrix type="matrix" values="0 0 0 0 0.937 0 0 0 0 0.851 0 0 0 0 0.741 0 0 0 1 0"/><feBlend mode="normal" in2="BackgroundImageFix" result="effect1_dropShadow"/><feColorMatrix in="SourceAlpha" type="matrix" values="0 0 0 0 0 0 0 0 0 0 0 0 0 0 0 0 0 0 127 0" result="hardAlpha"/><feOffset dx="0" dy="6"/><feGaussianBlur stdDeviation="7"/><feColorMatrix type="matrix" values="0 0 0 0 0.627 0 0 0 0 0.431 0 0 0 0 0.235 0 0 0 0.12 0"/><feBlend mode="normal" in2="effect1_dropShadow" result="effect2_dropShadow"/><feBlend mode="normal" in="SourceGraphic" in2="effect2_dropShadow" result="shape"/></filter><filter id="shadow2" x="6" y="119" width="192.5" height="210" filterUnits="userSpaceOnUse" color-interpolation-filters="sRGB"><feFlood flood-opacity="0" result="BackgroundImageFix"/><feColorMatrix in="SourceAlpha" type="matrix" values="0 0 0 0 0 0 0 0 0 0 0 0 0 0 0 0 0 0 127 0" result="hardAlpha"/><feOffset dx="0" dy="6"/><feColorMatrix type="matrix" values="0 0 0 0 0.957 0 0 0 0 0.773 0 0 0 0 0.592 0 0 0 1 0"/><feBlend mode="normal" in2="BackgroundImageFix" result="effect1_dropShadow"/><feBlend mode="normal" in="SourceGraphic" in2="effect1_dropShadow" result="shape"/></filter><filter id="shadow3" x="194.5" y="119" width="192.5" height="210" filterUnits="userSpaceOnUse" color-interpolation-filters="sRGB"><feFlood flood-opacity="0" result="BackgroundImageFix"/><feColorMatrix in="SourceAlpha" type="matrix" values="0 0 0 0 0 0 0 0 0 0 0 0 0 0 0 0 0 0 127 0" result="hardAlpha"/><feOffset dx="0" dy="6"/><feColorMatrix type="matrix" values="0 0 0 0 0.682 0 0 0 0 0.847 0 0 0 0 0.949 0 0 0 1 0"/><feBlend mode="normal" in2="BackgroundImageFix" result="effect1_dropShadow"/><feBlend mode="normal" in="SourceGraphic" in2="effect1_dropShadow" result="shape"/></filter></defs><g id="background"><rect width="393" height="852" fill="rgb(255, 248, 239)"/><rect width="393" height="852" fill="url(#glowA)"/><rect width="393" height="852" fill="url(#glowB)"/></g><g id="div"><g id="screen"><g id="home-head"><g id="svg" transform="translate(16 7) scale(0.8)"><path d="M60 10C38 10 12 66 12 86c0 14 12 22 48 22s48-8 48-22C108 66 82 10 60 10z" fill="rgb(255, 250, 242)" stroke="rgb(74, 59, 53)" stroke-width="4px" stroke-linecap="butt" stroke-linejoin="miter"></path><rect x="30" y="80" width="60" height="28" rx="6" fill="rgb(54, 88, 74)" stroke="none" stroke-width="1px" stroke-linecap="butt" stroke-linejoin="miter"></rect><circle cx="46" cy="58" r="5" fill="rgb(74, 59, 53)" stroke="none" stroke-width="1px" stroke-linecap="butt" stroke-linejoin="miter"></circle><circle cx="74" cy="58" r="5" fill="rgb(74, 59, 53)" stroke="none" stroke-width="1px" stroke-linecap="butt" stroke-linejoin="miter"></circle><circle cx="38" cy="68" r="6" fill="rgb(255, 180, 168)" opacity="0.8" stroke="none" stroke-width="1px" stroke-linecap="butt" stroke-linejoin="miter"></circle><circle cx="82" cy="68" r="6" fill="rgb(255, 180, 168)" opacity="0.8" stroke="none" stroke-width="1px" stroke-linecap="butt" stroke-linejoin="miter"></circle><path d="M50 70q10 9 20 0" stroke="rgb(74, 59, 53)" stroke-width="4px" fill="none" stroke-linecap="round" stroke-linejoin="miter"></path></g><g id="title"><g id="h1"><text x="124" y="40" font-family="ui-rounded, 'Hiragino Maru Gothic ProN', 'SF Pro Rounded', Nunito, 'Segoe UI', system-ui, sans-serif" font-size="25.6" font-weight="700" fill="rgb(74, 59, 53)" letter-spacing="0.256" xml:space="preserve">Hiragana</text><text x="124" y="74" font-family="ui-rounded, 'Hiragino Maru Gothic ProN', 'SF Pro Rounded', Nunito, 'Segoe UI', system-ui, sans-serif" font-size="25.6" font-weight="700" fill="rgb(74, 59, 53)" letter-spacing="0.256" xml:space="preserve">Buddy</text></g><g id="subtitle"><text x="124" y="101" font-family="ui-rounded, 'Hiragino Maru Gothic ProN', 'SF Pro Rounded', Nunito, 'Segoe UI', system-ui, sans-serif" font-size="16.8" font-weight="400" fill="rgb(138, 119, 108)" xml:space="preserve">ひらがな の ともだち</text></g></g><g id="Grown-ups"><rect x="321" y="32.5" width="56" height="56" rx="28" fill="rgb(255, 255, 255)" filter="url(#shadow1)"/><g id="svg-2" transform="translate(334 45.5) scale(0.625)"><circle cx="24" cy="24" r="6" fill="none" stroke="rgb(138, 119, 108)" stroke-width="4px" stroke-linecap="round" stroke-linejoin="round"></circle><path d="M24 5v6M24 37v6M5 24h6M37 24h6M10.6 10.6l4.2 4.2M33.2 33.2l4.2 4.2M10.6 37.4l4.2-4.2M33.2 14.8l4.2-4.2" fill="none" stroke="rgb(138, 119, 108)" stroke-width="4px" stroke-linecap="round" stroke-linejoin="round"></path></g></g></g><g id="big-choices"><g id="go-word"><rect x="16" y="129" width="172.5" height="190" rx="28" fill="rgb(255, 225, 196)" filter="url(#shadow2)"/><g id="big-icon"><g id="svg-3" transform="translate(50.3 153.5) scale(2.1667)"><path d="M6 10h36v22H24l-9 8v-8H6z" fill="rgb(255, 255, 255)" stroke="rgb(74, 59, 53)" stroke-width="4px" stroke-linecap="round" stroke-linejoin="round"></path><path d="M29 35 41 23l4 4-12 12h-4z" fill="rgb(255, 210, 122)" stroke="rgb(74, 59, 53)" stroke-width="4px" stroke-linecap="round" stroke-linejoin="round"></path></g></g><g id="big-label"><text x="37.8" y="291.5" font-family="ui-rounded, 'Hiragino Maru Gothic ProN', 'SF Pro Rounded', Nunito, 'Segoe UI', system-ui, sans-serif" font-size="20" font-weight="800" fill="rgb(74, 59, 53)" xml:space="preserve">Write a word</text></g></g><g id="go-letter"><rect x="204.5" y="129" width="172.5" height="190" rx="28" fill="rgb(217, 240, 255)" filter="url(#shadow3)"/><g id="big-icon-2"><rect x="252.8" y="167.5" width="76" height="76" rx="22" fill="rgb(255, 255, 255)"/><rect x="254.3" y="169" width="73" height="73" rx="20.5" fill="none" stroke="rgb(174, 216, 242)" stroke-width="3"/><g id="svg-4" transform="translate(266.8 181.5) scale(0.4404)"><path d="M31.01,33c0.88,0.88,2.75,1.82,5.25,1.75c8.62-0.25,20-2.12,29.5-4.25c1.51-0.34,4.62-0.88,6.62-0.5" fill="none" stroke="rgb(74, 59, 53)" stroke-width="6px" stroke-linecap="round" stroke-linejoin="round"></path><path d="M49.76,17.62c0.88,1,1.82,3.26,1.38,5.25c-3.75,16.75-6.25,38.13-5.13,53.63c0.41,5.7,1.88,10.88,3.38,13.62" fill="none" stroke="rgb(74, 59, 53)" stroke-width="6px" stroke-linecap="round" stroke-linejoin="round"></path><path d="M65.63,44.12c0.75,1.12,1.16,4.39,0.5,6.12c-4.62,12.26-11.24,23.76-25.37,35.76c-6.86,5.83-15.88,3.75-16.25-8.38c-0.34-10.87,13.38-23.12,32.38-26.74c12.42-2.37,27,1.38,30.5,12.75c4.05,13.18-3.76,26.37-20.88,30.49" fill="none" stroke="rgb(74, 59, 53)" stroke-width="6px" stroke-linecap="round" stroke-linejoin="round"></path></g></g><g id="big-label-2"><text x="241.5" y="277.5" font-family="ui-rounded, 'Hiragino Maru Gothic ProN', 'SF Pro Rounded', Nunito, 'Segoe UI', system-ui, sans-serif" font-size="20" font-weight="800" fill="rgb(74, 59, 53)" xml:space="preserve">One letter</text></g></g></g></g></g></svg>